<svg xmlns="http://www.w3.org/2000/svg" width="120" height="48" viewBox="0 0 120 48" fill="none">
  <rect x="1" y="1" width="118" height="46" rx="12" fill="white" stroke="#CBD5E1" stroke-width="2"/>
  <circle cx="49" cy="24" r="10" fill="#EB001B"/>
  <circle cx="71" cy="24" r="10" fill="#F79E1B"/>
  <path d="M60 16.5C62.4 18.3 64 21 64 24C64 27 62.4 29.7 60 31.5C57.6 29.7 56 27 56 24C56 21 57.6 18.3 60 16.5Z" fill="#FF5F00"/>
  <path d="M86 31.5V16.5H88.8L92.1 25.6L95.4 16.5H98.2V31.5H96.2V20.8L92.8 30.1H91.4L88 20.8V31.5H86Z" fill="#0F172A"/>
  <path d="M101.2 31.5V16.5H103.3V31.5H101.2Z" fill="#0F172A"/>
  <path d="M18.4 31.5V16.5H20.5L25.9 26.4V16.5H28V31.5H25.9L20.5 21.6V31.5H18.4Z" fill="#0F172A"/>
</svg>
