<svg xmlns="http://www.w3.org/2000/svg" width="120" height="48" viewBox="0 0 120 48" fill="none">
  <rect x="1" y="1" width="118" height="46" rx="12" fill="white" stroke="#CBD5E1" stroke-width="2"/>
  <path d="M35.6 31L39.7 17H46L41.9 31H35.6Z" fill="#1A1F71"/>
  <path d="M61.7 17.3C60.4 16.8 58.5 16.3 56.1 16.3C50 16.3 45.7 19.4 45.7 23.8C45.7 27 48.7 28.3 50.9 29.3C53.2 30.3 54 30.9 54 31.7C54 32.8 52.6 33.3 51.2 33.3C48.9 33.3 47.7 33 45.8 32.2L45 31.8L44.2 36.8C45.6 37.4 48.2 37.9 50.8 37.9C57.3 37.9 61.5 34.9 61.5 30.2C61.5 27.9 60 26.2 56.7 24.8C54.7 23.9 53.5 23.4 53.5 22.5C53.5 21.7 54.5 20.8 56.6 20.8C58.3 20.8 59.5 21.1 60.4 21.4L60.9 21.6L61.7 17.3Z" fill="#1A1F71"/>
  <path d="M78.3 17H73.4C71.9 17 70.8 17.4 70.2 18.8L61.1 37.5H67.6C67.6 37.5 68.7 34.9 68.9 34.3H76.8C76.9 35 77.5 37.5 77.5 37.5H83.3L78.3 17ZM70.7 29.7C71.2 28.4 73.2 23.5 73.2 23.5C73.2 23.5 73.7 22.2 74 21.4L74.4 23.4C74.4 23.4 75.3 27.8 75.5 29.7H70.7Z" fill="#1A1F71"/>
  <path d="M30.2 17L24 31.2L23.3 27.7C22.1 23.9 18.4 19.8 14.3 17.7L20 37.4H26.5L36.1 17H30.2Z" fill="#1A1F71"/>
  <path d="M18.3 17H8.4L8.3 17.5C16 19.4 21.2 24 23.3 27.7L21.1 18.9C20.7 17.5 19.8 17 18.3 17Z" fill="#F7B600"/>
</svg>
